<?xml version="1.0" encoding="UTF-8" standalone="no"?>
<svg
   xmlns:osb="http://www.openswatchbook.org/uri/2009/osb"
   xmlns:dc="http://purl.org/dc/elements/1.1/"
   xmlns:cc="http://creativecommons.org/ns#"
   xmlns:rdf="http://www.w3.org/1999/02/22-rdf-syntax-ns#"
   xmlns:svg="http://www.w3.org/2000/svg"
   xmlns="http://www.w3.org/2000/svg"
   xmlns:sodipodi="http://sodipodi.sourceforge.net/DTD/sodipodi-0.dtd"
   xmlns:inkscape="http://www.inkscape.org/namespaces/inkscape"
   width="24"
   height="24"
   viewBox="0 0 24 24"
   version="1.1"
   id="svg6"
   sodipodi:docname="tag.svg"
   inkscape:version="0.92.1 r15371">
  <metadata
     id="metadata12">
    <rdf:RDF>
      <cc:Work
         rdf:about="">
        <dc:format>image/svg+xml</dc:format>
        <dc:type
           rdf:resource="http://purl.org/dc/dcmitype/StillImage" />
      </cc:Work>
    </rdf:RDF>
  </metadata>
  <defs
     id="defs10">
    <linearGradient
       id="linearGradient4495"
       osb:paint="solid">
      <stop
         style="stop-color:#000000;stop-opacity:1;"
         offset="0"
         id="stop4493" />
    </linearGradient>
  </defs>
  <sodipodi:namedview
     pagecolor="#ffffff"
     bordercolor="#666666"
     borderopacity="1"
     objecttolerance="10"
     gridtolerance="10"
     guidetolerance="10"
     inkscape:pageopacity="0"
     inkscape:pageshadow="2"
     inkscape:window-width="1366"
     inkscape:window-height="704"
     id="namedview8"
     showgrid="false"
     inkscape:zoom="9.8333333"
     inkscape:cx="-8.5423729"
     inkscape:cy="11.59322"
     inkscape:window-x="0"
     inkscape:window-y="27"
     inkscape:window-maximized="1"
     inkscape:current-layer="svg6" />
  <path
     d="M 28.970563,12 12,-4.9705627 -4.9705627,12 12,28.970563 Z"
     id="path2"
     inkscape:connector-curvature="0"
     style="fill:none" />
  <path
     style="fill:#a2a7af;fill-opacity:0.98431373"
     d="m 14.12132,4.2218254 7.771267,7.7850826 c 0.77782,0.777815 0.784725,2.043702 0.0069,2.821519 l -7.071068,7.071068 c -0.777817,0.777817 -2.043704,0.770912 -2.821521,-0.0069 L 4.2218254,14.12132 C 3.7480639,13.647559 3.5564273,12.989452 3.6624933,12.374269 L 4.9289322,4.9289322 12.37427,3.6624932 c 0.615183,-0.106066 1.273289,0.085571 1.74705,0.5593322 z M 10.058218,7.182835 A 1.9322034,1.9322034 0 0 0 9.9145845,7.053018 1.9322034,1.9322034 0 0 0 9.7599049,6.9370086 1.9322034,1.9322034 0 0 0 9.5927943,6.8389541 1.9322034,1.9322034 0 0 0 9.4187768,6.7588545 1.9322034,1.9322034 0 0 0 9.236479,6.6953223 1.9322034,1.9322034 0 0 0 9.048653,6.6483662 1.9322034,1.9322034 0 0 0 8.8566842,6.6221262 1.9322034,1.9322034 0 0 0 8.663335,6.6166015 1.9322034,1.9322034 0 0 0 8.4713661,6.6290318 1.9322034,1.9322034 0 0 0 8.2807789,6.6594155 1.9322034,1.9322034 0 0 0 8.0943354,6.7105145 1.9322034,1.9322034 0 0 0 7.914796,6.7795684 1.9322034,1.9322034 0 0 0 7.742163,6.8665751 1.9322034,1.9322034 0 0 0 7.5778158,6.9701549 1.9322034,1.9322034 0 0 0 7.4258981,7.0889277 a 1.9322034,1.9322034 0 0 0 -0.09944,0.09391 1.9322034,1.9322034 0 0 0 -0.1312029,0.142248 1.9322034,1.9322034 0 0 0 -0.1132474,0.1546796 1.9322034,1.9322034 0 0 0 -0.098056,0.1671091 1.9322034,1.9322034 0 0 0 -0.081483,0.1753957 1.9322034,1.9322034 0 0 0 -0.063529,0.1823014 1.9322034,1.9322034 0 0 0 -0.046956,0.1878245 1.9322034,1.9322034 0 0 0 -0.024859,0.1905879 1.9322034,1.9322034 0 0 0 -0.00691,0.1947301 1.9322034,1.9322034 0 0 0 0.012429,0.1919682 1.9322034,1.9322034 0 0 0 0.031764,0.1892069 1.9322034,1.9322034 0 0 0 0.049716,0.1878281 1.9322034,1.9322034 0 0 0 0.06905,0.1795422 1.9322034,1.9322034 0 0 0 0.087005,0.1726359 1.9322034,1.9322034 0 0 0 0.1035791,0.1643478 1.9322034,1.9322034 0 0 0 0.1187699,0.1519191 1.9322034,1.9322034 0 0 0 0.093917,0.099433 1.9322034,1.9322034 0 0 0 0.1436551,0.129796 1.9322034,1.9322034 0 0 0 0.1532965,0.114632 1.9322034,1.9322034 0 0 0 0.1671106,0.09805 1.9322034,1.9322034 0 0 0 0.1753978,0.08148 1.9322034,1.9322034 0 0 0 0.1822978,0.06353 1.9322034,1.9322034 0 0 0 0.1878252,0.0442 1.9322034,1.9322034 0 0 0 0.190588,0.02762 1.9322034,1.9322034 0 0 0 0.1933491,0.0055 1.9322034,1.9322034 0 0 0 0.1933499,-0.01105 1.9322034,1.9322034 0 0 0 0.1905872,-0.03314 1.9322034,1.9322034 0 0 0 0.1850625,-0.04972 1.9322034,1.9322034 0 0 0 0.1823014,-0.06905 1.9322034,1.9322034 0 0 0 0.171252,-0.08563 1.9322034,1.9322034 0 0 0 0.1643415,-0.103565 1.9322034,1.9322034 0 0 0 0.1519176,-0.118772 1.9322034,1.9322034 0 0 0 0.099436,-0.093912 1.9322034,1.9322034 0 0 0 0.129821,-0.1436318 1.9322034,1.9322034 0 0 0 0.114628,-0.1560606 1.9322034,1.9322034 0 0 0 0.09806,-0.1643472 1.9322034,1.9322034 0 0 0 0.08148,-0.1753957 1.9322034,1.9322034 0 0 0 0.06353,-0.1823006 1.9322034,1.9322034 0 0 0 0.04557,-0.1892062 1.9322034,1.9322034 0 0 0 0.02486,-0.1905872 1.9322034,1.9322034 0 0 0 0.0083,-0.1933499 A 1.9322034,1.9322034 0 0 0 10.612026,8.3277406 1.9322034,1.9322034 0 0 0 10.580263,8.1357717 1.9322034,1.9322034 0 0 0 10.530544,7.9507085 1.9322034,1.9322034 0 0 0 10.46011,7.7697888 1.9322034,1.9322034 0 0 0 10.373102,7.5971551 1.9322034,1.9322034 0 0 0 10.270903,7.4341893 1.9322034,1.9322034 0 0 0 10.152131,7.282272 1.9322034,1.9322034 0 0 0 10.058218,7.182835 Z"
     id="path4"
     inkscape:connector-curvature="0" />
</svg>
